<svg width="49" height="49" viewBox="0 0 49 49" fill="none" xmlns="http://www.w3.org/2000/svg">
<path d="M28.5 24.5C28.5 23.4391 28.0786 22.4217 27.3284 21.6716C26.5783 20.9214 25.5609 20.5 24.5 20.5C23.4391 20.5 22.4217 20.9214 21.6716 21.6716C20.9214 22.4217 20.5 23.4391 20.5 24.5C20.5 25.5609 20.9214 26.5783 21.6716 27.3284C22.4217 28.0786 23.4391 28.5 24.5 28.5C25.5609 28.5 26.5783 28.0786 27.3284 27.3284C28.0786 26.5783 28.5 25.5609 28.5 24.5ZM28.5 24.5V26C28.5 26.663 28.7634 27.2989 29.2322 27.7678C29.7011 28.2366 30.337 28.5 31 28.5C31.663 28.5 32.2989 28.2366 32.7678 27.7678C33.2366 27.2989 33.5 26.663 33.5 26V24.5C33.5 22.72 32.9722 20.9799 31.9832 19.4999C30.9943 18.0198 29.5887 16.8663 27.9442 16.1851C26.2996 15.5039 24.49 15.3257 22.7442 15.6729C20.9984 16.0202 19.3947 16.8774 18.136 18.136C16.8774 19.3947 16.0202 20.9984 15.6729 22.7442C15.3257 24.49 15.5039 26.2996 16.1851 27.9442C16.8663 29.5887 18.0198 30.9943 19.4999 31.9832C20.9799 32.9722 22.72 33.5 24.5 33.5C26.0802 33.5016 27.6327 33.0862 29 32.294" stroke="#6B7280" stroke-width="2" stroke-linecap="round" stroke-linejoin="round"/>
</svg>
