<svg width="79" height="40" viewBox="0 0 79 40" fill="none" xmlns="http://www.w3.org/2000/svg">
<path d="M17.3568 28.566C17.7269 28.566 18.0934 28.4932 18.4353 28.3516C18.7772 28.21 19.0879 28.0025 19.3496 27.7408C19.6113 27.4791 19.8189 27.1685 19.9605 26.8266C20.1021 26.4847 20.175 26.1182 20.175 25.7481C20.175 20.5163 22.2534 15.4988 25.9528 11.7993C29.6522 8.09981 34.6699 6.02148 39.9017 6.02148C45.1335 6.02148 50.1512 8.09981 53.8505 11.7993C57.5501 15.4988 59.6284 20.5163 59.6284 25.7481C59.6357 26.4907 59.9359 27.2002 60.4636 27.7227C60.9912 28.2451 61.7038 28.5382 62.4465 28.5382C63.189 28.5382 63.9016 28.2451 64.4291 27.7227C64.9569 27.2002 65.2571 26.4907 65.2644 25.7481C65.2644 22.4175 64.6083 19.1194 63.3339 16.0423C62.0591 12.9651 60.191 10.1691 57.8359 7.81397C55.4806 5.45883 52.6846 3.59062 49.6076 2.31603C46.5303 1.04143 43.2325 0.385406 39.9017 0.385406C36.5709 0.385406 33.273 1.04143 30.1958 2.31603C27.1186 3.59062 24.3227 5.45883 21.9675 7.81397C19.6124 10.1691 17.7442 12.9651 16.4695 16.0423C15.195 19.1194 14.5389 22.4175 14.5389 25.7481C14.5389 26.4955 14.8358 27.2122 15.3643 27.7407C15.8927 28.2691 16.6095 28.566 17.3568 28.566Z" fill="url(#paint0_linear_1_920)"/>
<path d="M75.9733 34.2022H51.1648C53.0017 31.7669 53.9937 28.7988 53.9906 25.7482C53.9906 22.0112 52.506 18.4272 49.8636 15.7847C47.221 13.1423 43.637 11.6577 39.9 11.6577C36.1633 11.6577 32.5793 13.1423 29.9366 15.7847C27.2942 18.4272 25.8097 22.0112 25.8097 25.7482C25.8097 26.4956 26.1066 27.2124 26.6351 27.741C27.1636 28.2695 27.8804 28.5664 28.6279 28.5664C29.3754 28.5664 30.0922 28.2695 30.6206 27.741C31.1492 27.2124 31.446 26.4956 31.446 25.7482C31.446 24.0761 31.9418 22.4415 32.8707 21.0512C33.7997 19.6609 35.12 18.5772 36.6649 17.9373C38.2097 17.2974 39.9096 17.1299 41.5495 17.4561C43.1894 17.7823 44.696 18.5874 45.8782 19.7698C47.0606 20.9521 47.8658 22.4585 48.1922 24.0985C48.5183 25.7384 48.3509 27.4383 47.7111 28.983C47.0711 30.5279 45.9876 31.8485 44.5972 32.7775C43.2069 33.7065 41.5723 34.2022 39.9003 34.2022H3.83004C3.4576 34.1985 3.08812 34.2686 2.74295 34.4087C2.39779 34.5485 2.08379 34.7556 1.81911 35.0175C1.55443 35.2797 1.34432 35.5914 1.20092 35.9352C1.05753 36.279 0.983704 36.6479 0.983704 37.0203C0.983704 37.3926 1.05753 37.7614 1.20092 38.1052C1.34432 38.449 1.55443 38.7607 1.81911 39.0229C2.08379 39.2849 2.39779 39.4919 2.74295 39.6317C3.08812 39.7718 3.4576 39.8419 3.83004 39.8382H75.9733C76.7158 39.8309 77.4253 39.5307 77.9478 39.0029C78.4702 38.4754 78.7634 37.7628 78.7634 37.0203C78.7634 36.2776 78.4702 35.565 77.9478 35.0375C77.4253 34.5097 76.7158 34.2095 75.9733 34.2022Z" fill="url(#paint1_linear_1_920)"/>
<defs>
<linearGradient id="paint0_linear_1_920" x1="14.5389" y1="14.4757" x2="65.2644" y2="14.4757" gradientUnits="userSpaceOnUse">
<stop stop-color="#DD1B60"/>
<stop offset="0.243" stop-color="#DE1D5B"/>
<stop offset="0.495" stop-color="#E2254F"/>
<stop offset="0.751" stop-color="#EA313A"/>
<stop offset="1" stop-color="#F4431F"/>
</linearGradient>
<linearGradient id="paint1_linear_1_920" x1="0.983704" y1="25.7481" x2="78.7634" y2="25.7481" gradientUnits="userSpaceOnUse">
<stop stop-color="#DD1B60"/>
<stop offset="0.243" stop-color="#DE1D5B"/>
<stop offset="0.495" stop-color="#E2254F"/>
<stop offset="0.751" stop-color="#EA313A"/>
<stop offset="1" stop-color="#F4431F"/>
</linearGradient>
</defs>
</svg>
