<svg width="90" height="16" viewBox="0 0 90 16" fill="none" xmlns="http://www.w3.org/2000/svg">
<path d="M7.97413 11.9383L10.9263 13.8127C11.307 14.0528 11.7756 13.6955 11.6643 13.2562L10.8091 9.89405C10.786 9.80085 10.7897 9.70302 10.8197 9.61182C10.8498 9.52063 10.905 9.43978 10.979 9.37859L13.6265 7.17034C13.9721 6.88333 13.7964 6.30345 13.3454 6.27416L9.88951 6.05158C9.79521 6.04609 9.70456 6.01326 9.62862 5.95708C9.55269 5.90091 9.49476 5.82384 9.46192 5.73528L8.17328 2.49026C8.13917 2.39649 8.07703 2.31548 7.99529 2.25824C7.91356 2.20099 7.81619 2.17029 7.7164 2.17029C7.61662 2.17029 7.51925 2.20099 7.43751 2.25824C7.35578 2.31548 7.29363 2.39649 7.25952 2.49026L5.97089 5.73528C5.93805 5.82384 5.88012 5.90091 5.80418 5.95708C5.72825 6.01326 5.63759 6.04609 5.5433 6.05158L2.08742 6.27416C1.6364 6.30345 1.46068 6.88333 1.80626 7.17034L4.45382 9.37859C4.52782 9.43978 4.58303 9.52063 4.61308 9.61182C4.64313 9.70302 4.64681 9.80085 4.62368 9.89405L3.83293 13.0102C3.69821 13.5374 4.26052 13.965 4.71155 13.6779L7.45868 11.9383C7.53571 11.8893 7.62511 11.8633 7.7164 11.8633C7.80769 11.8633 7.89709 11.8893 7.97413 11.9383Z" fill="#E13C5A" stroke="#E13C5A" stroke-width="0.937188" stroke-linecap="round" stroke-linejoin="round"/>
<path d="M26.5679 11.9383L29.5201 13.8127C29.9008 14.0528 30.3694 13.6955 30.2581 13.2562L29.4029 9.89405C29.3798 9.80085 29.3835 9.70302 29.4135 9.61182C29.4436 9.52063 29.4988 9.43978 29.5728 9.37859L32.2203 7.17034C32.5659 6.88333 32.3902 6.30345 31.9392 6.27416L28.4833 6.05158C28.389 6.04609 28.2983 6.01326 28.2224 5.95708C28.1465 5.90091 28.0885 5.82384 28.0557 5.73528L26.7671 2.49026C26.733 2.39649 26.6708 2.31548 26.5891 2.25824C26.5073 2.20099 26.41 2.17029 26.3102 2.17029C26.2104 2.17029 26.113 2.20099 26.0313 2.25824C25.9496 2.31548 25.8874 2.39649 25.8533 2.49026L24.5647 5.73528C24.5318 5.82384 24.4739 5.90091 24.398 5.95708C24.322 6.01326 24.2314 6.04609 24.1371 6.05158L20.6812 6.27416C20.2302 6.30345 20.0545 6.88333 20.4001 7.17034L23.0476 9.37859C23.1216 9.43978 23.1768 9.52063 23.2069 9.61182C23.2369 9.70302 23.2406 9.80085 23.2175 9.89405L22.4267 13.0102C22.292 13.5374 22.8543 13.965 23.3053 13.6779L26.0525 11.9383C26.1295 11.8893 26.2189 11.8633 26.3102 11.8633C26.4015 11.8633 26.4909 11.8893 26.5679 11.9383Z" fill="#E13C5A" stroke="#E13C5A" stroke-width="0.937188" stroke-linecap="round" stroke-linejoin="round"/>
<path d="M45.1617 11.9383L48.1139 13.8127C48.4946 14.0528 48.9632 13.6955 48.8519 13.2562L47.9967 9.89405C47.9736 9.80085 47.9773 9.70302 48.0073 9.61182C48.0374 9.52063 48.0926 9.43978 48.1666 9.37859L50.8141 7.17034C51.1597 6.88333 50.984 6.30345 50.533 6.27416L47.0771 6.05158C46.9828 6.04609 46.8921 6.01326 46.8162 5.95708C46.7403 5.90091 46.6823 5.82384 46.6495 5.73528L45.3609 2.49026C45.3268 2.39649 45.2646 2.31548 45.1829 2.25824C45.1011 2.20099 45.0038 2.17029 44.904 2.17029C44.8042 2.17029 44.7068 2.20099 44.6251 2.25824C44.5434 2.31548 44.4812 2.39649 44.4471 2.49026L43.1585 5.73528C43.1256 5.82384 43.0677 5.90091 42.9918 5.95708C42.9158 6.01326 42.8252 6.04609 42.7309 6.05158L39.275 6.27416C38.824 6.30345 38.6483 6.88333 38.9938 7.17034L41.6414 9.37859C41.7154 9.43978 41.7706 9.52063 41.8007 9.61182C41.8307 9.70302 41.8344 9.80085 41.8113 9.89405L41.0205 13.0102C40.8858 13.5374 41.4481 13.965 41.8991 13.6779L44.6463 11.9383C44.7233 11.8893 44.8127 11.8633 44.904 11.8633C44.9953 11.8633 45.0847 11.8893 45.1617 11.9383Z" fill="#E13C5A" stroke="#E13C5A" stroke-width="0.937188" stroke-linecap="round" stroke-linejoin="round"/>
<path d="M63.7555 11.9383L66.7077 13.8127C67.0884 14.0528 67.557 13.6955 67.4457 13.2562L66.5905 9.89405C66.5674 9.80085 66.5711 9.70302 66.6011 9.61182C66.6312 9.52063 66.6864 9.43978 66.7604 9.37859L69.4079 7.17034C69.7535 6.88333 69.5778 6.30345 69.1268 6.27416L65.6709 6.05158C65.5766 6.04609 65.486 6.01326 65.41 5.95708C65.3341 5.90091 65.2762 5.82384 65.2433 5.73528L63.9547 2.49026C63.9206 2.39649 63.8584 2.31548 63.7767 2.25824C63.695 2.20099 63.5976 2.17029 63.4978 2.17029C63.398 2.17029 63.3006 2.20099 63.2189 2.25824C63.1372 2.31548 63.075 2.39649 63.0409 2.49026L61.7523 5.73528C61.7194 5.82384 61.6615 5.90091 61.5856 5.95708C61.5096 6.01326 61.419 6.04609 61.3247 6.05158L57.8688 6.27416C57.4178 6.30345 57.2421 6.88333 57.5877 7.17034L60.2352 9.37859C60.3092 9.43978 60.3644 9.52063 60.3945 9.61182C60.4245 9.70302 60.4282 9.80085 60.4051 9.89405L59.6143 13.0102C59.4796 13.5374 60.0419 13.965 60.4929 13.6779L63.2401 11.9383C63.3171 11.8893 63.4065 11.8633 63.4978 11.8633C63.5891 11.8633 63.6785 11.8893 63.7555 11.9383Z" fill="#E13C5A" stroke="#E13C5A" stroke-width="0.937188" stroke-linecap="round" stroke-linejoin="round"/>
<path d="M82.3493 11.9383L85.3015 13.8127C85.6822 14.0528 86.1508 13.6955 86.0395 13.2562L85.1843 9.89405C85.1612 9.80085 85.1649 9.70302 85.1949 9.61182C85.225 9.52063 85.2802 9.43978 85.3542 9.37859L88.0017 7.17034C88.3473 6.88333 88.1716 6.30345 87.7206 6.27416L84.2647 6.05158C84.1704 6.04609 84.0798 6.01326 84.0038 5.95708C83.9279 5.90091 83.87 5.82384 83.8371 5.73528L82.5485 2.49026C82.5144 2.39649 82.4522 2.31548 82.3705 2.25824C82.2888 2.20099 82.1914 2.17029 82.0916 2.17029C81.9918 2.17029 81.8945 2.20099 81.8127 2.25824C81.731 2.31548 81.6688 2.39649 81.6347 2.49026L80.3461 5.73528C80.3133 5.82384 80.2553 5.90091 80.1794 5.95708C80.1035 6.01326 80.0128 6.04609 79.9185 6.05158L76.4626 6.27416C76.0116 6.30345 75.8359 6.88333 76.1815 7.17034L78.829 9.37859C78.903 9.43978 78.9582 9.52063 78.9883 9.61182C79.0183 9.70302 79.022 9.80085 78.9989 9.89405L78.2081 13.0102C78.0734 13.5374 78.6357 13.965 79.0868 13.6779L81.8339 11.9383C81.9109 11.8893 82.0003 11.8633 82.0916 11.8633C82.1829 11.8633 82.2723 11.8893 82.3493 11.9383V11.9383Z" stroke="#E13C5A" stroke-width="0.937188" stroke-linecap="round" stroke-linejoin="round"/>
</svg>
