<svg width="432" height="109" viewBox="0 0 432 109" fill="none" xmlns="http://www.w3.org/2000/svg">
<path d="M55.8587 73.3333L55.9166 73.195L55.8587 73.3333ZM148.228 60.1377L148.19 60.2828L148.228 60.1377ZM219.604 105.723L219.645 105.867L219.604 105.723ZM282.583 86.5289L282.513 86.3964L282.583 86.5289ZM404.942 90.7275L404.842 90.6164L404.942 90.7275ZM431.334 60.1377L431.185 60.1548L431.334 60.1377ZM383.859 31.8277C383.793 31.8778 383.78 31.9718 383.83 32.0378L384.646 33.1127C384.696 33.1786 384.79 33.1915 384.856 33.1414C384.922 33.0913 384.935 32.9973 384.885 32.9313L384.159 31.9759L385.115 31.2505C385.181 31.2004 385.194 31.1063 385.144 31.0404C385.094 30.9744 384.999 30.9615 384.934 31.0116L383.859 31.8277ZM0.677101 0.157715C0.536632 0.210188 0.536633 0.21019 0.536634 0.210194C0.536635 0.210196 0.536637 0.210201 0.536639 0.210206C0.536642 0.210216 0.536647 0.210229 0.536654 0.210246C0.536667 0.210281 0.536685 0.21033 0.536709 0.210394C0.536757 0.210521 0.536826 0.210708 0.536918 0.210954C0.537102 0.211445 0.537374 0.212172 0.537734 0.213133C0.538454 0.215056 0.539527 0.217918 0.540951 0.221713C0.543801 0.229301 0.548057 0.240619 0.553715 0.255613C0.565031 0.2856 0.581952 0.330291 0.604434 0.389258C0.649398 0.507192 0.716603 0.682233 0.805679 0.910966L1.08514 0.802136C0.996324 0.574083 0.929376 0.399706 0.884658 0.282419C0.8623 0.223775 0.845499 0.179404 0.834302 0.149732C0.828704 0.134896 0.824507 0.123735 0.821716 0.116303C0.820321 0.112586 0.819277 0.109802 0.818586 0.107956C0.81824 0.107033 0.817983 0.106345 0.817814 0.105893C0.817729 0.105666 0.817666 0.105499 0.817626 0.10539C0.817606 0.105336 0.817591 0.105297 0.817582 0.105272C0.817577 0.10526 0.817574 0.105251 0.817572 0.105246C0.817571 0.105243 0.817571 0.105242 0.81757 0.105241C0.81757 0.105241 0.81757 0.105242 0.677101 0.157715ZM1.35189 2.28863C1.51825 2.70182 1.70957 3.17187 1.92537 3.69446L2.20257 3.57999C1.98711 3.05825 1.79613 2.58901 1.63009 2.17662L1.35189 2.28863ZM2.50744 5.08847C2.69279 5.52769 2.8908 5.99263 3.1013 6.48165L3.37676 6.36308C3.16656 5.87473 2.96882 5.41045 2.78374 4.97187L2.50744 5.08847ZM3.71066 7.88403C3.90517 8.32755 4.10826 8.78678 4.31981 9.26075L4.59367 9.13852C4.38239 8.66515 4.17957 8.20651 3.98531 7.76357L3.71066 7.88403ZM4.93744 10.6328C5.14365 11.087 5.35674 11.5526 5.57664 12.029L5.84892 11.9032C5.62929 11.4275 5.41647 10.9625 5.21052 10.5088L4.93744 10.6328ZM6.20549 13.3802C6.41722 13.8315 6.63453 14.2911 6.85738 14.7585L7.12809 14.6295C6.90551 14.1626 6.68846 13.7035 6.477 13.2528L6.20549 13.3802ZM7.50825 16.1129C7.72575 16.562 7.948 17.0173 8.17496 17.4785L8.44405 17.3461C8.21736 16.8855 7.99539 16.4307 7.77816 15.9822L7.50825 16.1129ZM8.84413 18.8278C9.06784 19.2754 9.29574 19.7278 9.5278 20.1848L9.7952 20.049C9.56344 19.5926 9.33582 19.1407 9.11239 18.6937L8.84413 18.8278ZM10.2135 21.5246C10.4438 21.9712 10.6779 22.4216 10.9158 22.8754L11.1814 22.7362C10.9439 22.2829 10.71 21.8331 10.48 21.3871L10.2135 21.5246ZM11.6173 24.2037C11.8545 24.6493 12.0952 25.0978 12.3394 25.5491L12.6031 25.4064C12.3593 24.9557 12.119 24.5078 11.8821 24.0628L11.6173 24.2037ZM13.057 26.8649C13.2994 27.3059 13.545 27.7491 13.7937 28.1943L14.0555 28.048C13.8071 27.6034 13.5618 27.1608 13.3198 26.7205L13.057 26.8649ZM14.5336 29.5076C14.7813 29.9437 15.032 30.3814 15.2857 30.8206L15.5453 30.6706C15.2921 30.2321 15.0418 29.795 14.7944 29.3594L14.5336 29.5076ZM16.0485 32.1301C16.3019 32.5616 16.5581 32.9941 16.8171 33.4275L17.0746 33.2736C16.816 32.8409 16.5601 32.409 16.307 31.9782L16.0485 32.1301ZM17.6023 34.7299C17.8621 35.157 18.1245 35.5848 18.3895 36.0129L18.6445 35.855C18.3799 35.4276 18.1179 35.0005 17.8585 34.5741L17.6023 34.7299ZM19.1919 37.2976C19.4601 37.7229 19.7308 38.1485 20.004 38.574L20.2563 38.4119C19.9836 37.9872 19.7133 37.5623 19.4456 37.1376L19.1919 37.2976ZM20.8257 39.8418C21.1019 40.264 21.3807 40.686 21.6619 41.1075L21.9114 40.9411C21.6307 40.5203 21.3524 40.0991 21.0766 39.6776L20.8257 39.8418ZM22.5049 42.359C22.7883 42.7756 23.0741 43.1915 23.3623 43.6065L23.6086 43.4355C23.321 43.0212 23.0358 42.6061 22.7529 42.1903L22.5049 42.359ZM24.2312 44.8452C24.5224 45.2561 24.8159 45.6659 25.1117 46.0744L25.3546 45.8986C25.0594 45.4908 24.7665 45.0819 24.4758 44.6718L24.2312 44.8452ZM26.0059 47.2961C26.3058 47.7012 26.6079 48.1049 26.9122 48.507L27.1513 48.326C26.8477 47.9248 26.5462 47.522 26.247 47.1177L26.0059 47.2961ZM27.8319 49.708C28.141 50.1069 28.4522 50.5039 28.7657 50.8989L29.0006 50.7125C28.6879 50.3184 28.3773 49.9223 28.069 49.5243L27.8319 49.708ZM29.7136 52.0787C30.0318 52.4698 30.3521 52.8586 30.6746 53.245L30.9048 53.0529C30.5832 52.6674 30.2636 52.2796 29.9462 51.8895L29.7136 52.0787ZM31.6534 54.4023C31.9819 54.7855 32.3125 55.166 32.6453 55.5437L32.8703 55.3454C32.5385 54.9688 32.2087 54.5893 31.8811 54.2071L31.6534 54.4023ZM33.6539 56.672C33.9937 57.0467 34.3357 57.4184 34.6799 57.7867L34.899 57.5819C34.5559 57.2147 34.2149 56.8442 33.876 56.4705L33.6539 56.672ZM35.7187 58.8813C36.0707 59.2465 36.425 59.6081 36.7813 59.9659L36.9938 59.7543C36.6386 59.3977 36.2855 59.0372 35.9346 58.6732L35.7187 58.8813ZM37.8573 61.028C38.2205 61.3804 38.5858 61.7287 38.9533 62.0726L39.1582 61.8537C38.7921 61.511 38.4281 61.1639 38.0661 60.8127L37.8573 61.028ZM40.0695 63.0981C40.4442 63.4357 40.8209 63.7688 41.1997 64.097L41.3961 63.8703C41.0188 63.5434 40.6435 63.2117 40.2703 62.8753L40.0695 63.0981ZM42.3592 65.0806C42.7479 65.4034 43.1387 65.7209 43.5316 66.033L43.7181 65.7982C43.327 65.4875 42.9378 65.1713 42.5508 64.8499L42.3592 65.0806ZM44.7304 66.963C45.1343 67.269 45.5404 67.569 45.9487 67.863L46.1239 67.6196C45.7177 67.3271 45.3135 67.0285 44.9114 66.724L44.7304 66.963ZM47.1869 68.731C47.6068 69.0173 48.0289 69.297 48.4531 69.5699L48.6153 69.3177C48.1934 69.0463 47.7736 68.7681 47.3559 68.4832L47.1869 68.731ZM49.7325 70.3679C50.1685 70.6313 50.6068 70.8873 51.0473 71.1357L51.1946 70.8745C50.7568 70.6276 50.3211 70.3731 49.8876 70.1112L49.7325 70.3679ZM52.3752 71.8577C52.8253 72.0933 53.2776 72.3207 53.7321 72.5398L53.8624 72.2697C53.4109 72.0521 52.9615 71.8261 52.5143 71.592L52.3752 71.8577ZM55.1079 73.1741C55.3383 73.2755 55.5693 73.3747 55.8008 73.4716L55.9166 73.195C55.6868 73.0987 55.4575 73.0003 55.2287 72.8996L55.1079 73.1741ZM55.8008 73.4716C56.0374 73.5707 56.2735 73.6674 56.5092 73.7615L56.6205 73.483C56.3864 73.3895 56.1517 73.2935 55.9166 73.195L55.8008 73.4716ZM57.9173 74.2972C58.3904 74.4681 58.8616 74.6292 59.331 74.7808L59.4231 74.4954C58.9571 74.3449 58.4891 74.1849 58.0192 74.0151L57.9173 74.2972ZM60.7775 75.2197C61.2603 75.3567 61.7411 75.4838 62.22 75.6012L62.2914 75.3099C61.816 75.1934 61.3387 75.0672 60.8594 74.9312L60.7775 75.2197ZM63.696 75.9341C64.1872 76.0352 64.6765 76.1264 65.164 76.208L65.2135 75.9122C64.7297 75.8313 64.244 75.7408 63.7564 75.6403L63.696 75.9341ZM66.6596 76.429C67.1572 76.4929 67.6528 76.5469 68.1467 76.5915L68.1737 76.2928C67.6835 76.2486 67.1916 76.1949 66.6978 76.1315L66.6596 76.429ZM69.6523 76.6988C70.1534 76.725 70.6526 76.7418 71.15 76.7494L71.1547 76.4496C70.6608 76.442 70.1653 76.4253 69.668 76.3993L69.6523 76.6988ZM72.6568 76.7451C73.1583 76.7346 73.6581 76.7152 74.1562 76.6872L74.1394 76.3878C73.6447 76.4156 73.1484 76.4349 72.6505 76.4453L72.6568 76.7451ZM75.6568 76.5771C76.156 76.532 76.6536 76.4786 77.1499 76.4174L77.1132 76.1198C76.6201 76.1806 76.1256 76.2336 75.6298 76.2784L75.6568 76.5771ZM78.6386 76.2102C79.1334 76.1335 79.627 76.0494 80.1192 75.9583L80.0646 75.6634C79.5752 75.754 79.0845 75.8376 78.5927 75.9138L78.6386 76.2102ZM81.5924 75.6644C82.0816 75.5598 82.5697 75.4487 83.0566 75.3315L82.9865 75.0399C82.5019 75.1566 82.0163 75.2671 81.5297 75.3711L81.5924 75.6644ZM84.5125 74.9624C84.9954 74.8339 85.4774 74.6998 85.9585 74.5604L85.8751 74.2723C85.396 74.4111 84.9161 74.5447 84.4353 74.6726L84.5125 74.9624ZM87.3966 74.1278C87.8734 73.9793 88.3493 73.826 88.8247 73.6684L88.7303 73.3837C88.2566 73.5408 87.7823 73.6935 87.3074 73.8415L87.3966 74.1278ZM90.246 73.1839C90.717 73.0191 91.1875 72.8505 91.6575 72.6784L91.5543 72.3967C91.0856 72.5684 90.6165 72.7366 90.1469 72.9008L90.246 73.1839ZM93.0639 72.1529C93.5301 71.9754 93.9959 71.7949 94.4614 71.6117L94.3516 71.3327C93.8871 71.5154 93.4223 71.6955 92.9572 71.8726L93.0639 72.1529ZM95.8556 71.0555C96.318 70.8687 96.7803 70.6796 97.2424 70.4887L97.1279 70.2115C96.6664 70.4021 96.2049 70.5909 95.7433 70.7775L95.8556 71.0555ZM98.6274 69.9115C99.0872 69.7183 99.547 69.5237 100.007 69.3282L99.8895 69.0522C99.43 69.2476 98.9706 69.442 98.5113 69.635L98.6274 69.9115ZM101.386 68.7391C101.845 68.5425 102.303 68.3454 102.762 68.148L102.644 67.8726C102.185 68.0699 101.726 68.267 101.268 68.4634L101.386 68.7391ZM104.139 67.5558C104.598 67.3588 105.056 67.1619 105.515 66.9656L105.398 66.6898C104.938 66.8863 104.479 67.0832 104.021 67.2802L104.139 67.5558ZM106.894 66.3786C107.353 66.184 107.813 65.9902 108.274 65.7977L108.158 65.521C107.697 65.7137 107.237 65.9077 106.777 66.1025L106.894 66.3786ZM109.657 65.2245C110.119 65.035 110.581 64.8471 111.044 64.6613L110.933 64.383C110.469 64.5691 110.006 64.7573 109.543 64.947L109.657 65.2245ZM112.436 64.1102C112.901 63.9288 113.367 63.7497 113.833 63.5734L113.727 63.2929C113.259 63.4696 112.793 63.649 112.327 63.8309L112.436 64.1102ZM115.236 63.0532C115.705 62.8828 116.175 62.7155 116.646 62.5517L116.547 62.2684C116.075 62.4327 115.604 62.6005 115.133 62.7714L115.236 63.0532ZM118.062 62.0713C118.536 61.9149 119.01 61.7624 119.486 61.6142L119.397 61.3279C118.919 61.4766 118.443 61.6296 117.968 61.7866L118.062 62.0713ZM120.918 61.1829C121.397 61.0437 121.876 60.9092 122.358 60.7797L122.28 60.4901C121.796 60.6201 121.315 60.7552 120.834 60.8949L120.918 61.1829ZM123.806 60.4067C124.289 60.2879 124.774 60.1745 125.26 60.0668L125.195 59.774C124.707 59.8822 124.219 59.9961 123.734 60.1155L123.806 60.4067ZM126.724 59.7616C127.212 59.6662 127.701 59.5769 128.193 59.4941L128.143 59.1984C127.649 59.2816 127.157 59.3714 126.666 59.4672L126.724 59.7616ZM129.671 59.2655C130.162 59.1965 130.655 59.1341 131.15 59.0789L131.117 58.7808C130.619 58.8364 130.123 58.8991 129.629 58.9685L129.671 59.2655ZM132.64 58.935C133.133 58.8947 133.629 58.8617 134.126 58.8364L134.111 58.5369C133.61 58.5624 133.112 58.5956 132.615 58.6361L132.64 58.935ZM135.623 58.7837C136.117 58.7741 136.612 58.7723 137.11 58.7785L137.114 58.4786C136.613 58.4723 136.114 58.4742 135.617 58.4838L135.623 58.7837ZM138.61 58.8217C139.102 58.8439 139.595 58.8742 140.091 58.9128L140.115 58.6138C139.615 58.5749 139.118 58.5444 138.624 58.5221L138.61 58.8217ZM141.586 59.0541C142.074 59.1084 142.565 59.171 143.057 59.2421L143.1 58.9453C142.604 58.8737 142.111 58.8107 141.619 58.756L141.586 59.0541ZM144.538 59.4807C145.022 59.5668 145.508 59.6613 145.997 59.7645L146.059 59.4711C145.567 59.3673 145.078 59.2721 144.591 59.1855L144.538 59.4807ZM147.455 60.0969C147.7 60.1567 147.945 60.2186 148.19 60.2828L148.266 59.9926C148.019 59.9281 147.773 59.8658 147.527 59.8056L147.455 60.0969ZM148.19 60.2828C148.438 60.3475 148.683 60.4133 148.927 60.4802L149.006 60.1909C148.761 60.1238 148.515 60.0577 148.266 59.9926L148.19 60.2828ZM150.367 60.8936C150.839 61.0355 151.304 61.1814 151.762 61.3313L151.855 61.0462C151.395 60.8956 150.928 60.7489 150.453 60.6063L150.367 60.8936ZM153.175 61.8143C153.648 61.983 154.112 62.156 154.569 62.3332L154.678 62.0536C154.218 61.8754 153.751 61.7014 153.275 61.5318L153.175 61.8143ZM155.919 62.8782C156.388 63.0752 156.848 63.2768 157.3 63.4827L157.424 63.2098C156.97 63.0026 156.507 62.7999 156.035 62.6017L155.919 62.8782ZM158.63 64.1133C159.079 64.3343 159.519 64.5597 159.95 64.7893L160.091 64.5246C159.657 64.2935 159.214 64.0666 158.763 63.8442L158.63 64.1133ZM161.251 65.5086C161.68 65.7549 162.1 66.0056 162.512 66.2603L162.67 66.0052C162.255 65.7488 161.832 65.4965 161.4 65.2485L161.251 65.5086ZM163.77 67.068C164.18 67.3415 164.582 67.6191 164.975 67.9006L165.15 67.6568C164.754 67.3733 164.349 67.0938 163.936 66.8184L163.77 67.068ZM166.176 68.792C166.569 69.0938 166.952 69.3996 167.328 69.7091L167.519 69.4777C167.141 69.1661 166.754 68.8582 166.359 68.5543L166.176 68.792ZM168.46 70.6759C168.832 71.0042 169.195 71.3362 169.549 71.6715L169.755 71.4535C169.398 71.116 169.033 70.7818 168.659 70.4512L168.46 70.6759ZM170.613 72.7098C170.962 73.0621 171.303 73.4176 171.636 73.7759L171.856 73.5717C171.52 73.2111 171.177 72.8533 170.826 72.4987L170.613 72.7098ZM172.631 74.8792C172.957 75.2524 173.276 75.6283 173.587 76.0064L173.819 75.8157C173.505 75.4354 173.185 75.0573 172.856 74.6818L172.631 74.8792ZM174.516 77.1664C174.821 77.5573 175.118 77.9501 175.41 78.3445L175.651 78.1663C175.358 77.77 175.059 77.3751 174.753 76.9821L174.516 77.1664ZM176.279 79.5519C176.563 79.957 176.842 80.3634 177.115 80.7705L177.364 80.6034C177.09 80.1946 176.81 79.7865 176.524 79.3795L176.279 79.5519ZM177.933 82.0159C178.201 82.4327 178.464 82.8499 178.722 83.2669L178.977 83.1089C178.718 82.6906 178.454 82.272 178.185 81.8536L177.933 82.0159ZM179.498 84.5386C179.754 84.9645 180.006 85.3898 180.254 85.814L180.513 85.6624C180.264 85.2374 180.012 84.8111 179.755 84.3841L179.498 84.5386ZM181.001 87.1005C181.249 87.5326 181.495 87.9631 181.739 88.3913L181.999 88.2431C181.755 87.8146 181.51 87.3837 181.261 86.951L181.001 87.1005ZM182.471 89.6818C182.718 90.1172 182.963 90.5497 183.208 90.9787L183.469 90.83C183.224 90.4014 182.979 89.9692 182.732 89.5339L182.471 89.6818ZM183.946 92.2637C184.198 92.6979 184.45 93.1277 184.702 93.5527L184.96 93.3995C184.708 92.9757 184.457 92.5468 184.206 92.1133L183.946 92.2637ZM185.472 94.8264C185.734 95.2518 185.999 95.6714 186.265 96.0844L186.517 95.9216C186.252 95.5106 185.989 95.0929 185.728 94.6691L185.472 94.8264ZM187.094 97.3297C187.377 97.7421 187.664 98.1468 187.956 98.5429L188.197 98.3649C187.907 97.9718 187.622 97.5699 187.341 97.16L187.094 97.3297ZM188.866 99.7271C189.18 100.119 189.501 100.5 189.829 100.871L190.054 100.672C189.729 100.305 189.411 99.9274 189.1 99.5393L188.866 99.7271ZM190.849 101.96C191.202 102.315 191.564 102.658 191.936 102.988L192.135 102.764C191.768 102.438 191.411 102.1 191.062 101.749L190.849 101.96ZM193.089 103.941C193.484 104.244 193.891 104.533 194.31 104.807L194.474 104.556C194.061 104.286 193.661 104.002 193.272 103.703L193.089 103.941ZM195.597 105.576C196.029 105.812 196.474 106.032 196.934 106.237L197.056 105.963C196.604 105.761 196.166 105.545 195.74 105.313L195.597 105.576ZM198.328 106.792C198.791 106.956 199.267 107.104 199.757 107.237L199.835 106.947C199.352 106.816 198.884 106.67 198.428 106.509L198.328 106.792ZM201.206 107.574C201.691 107.67 202.19 107.751 202.703 107.818L202.741 107.52C202.235 107.454 201.742 107.374 201.264 107.28L201.206 107.574ZM204.164 107.963C204.658 107.999 205.164 108.021 205.683 108.03L205.688 107.73C205.174 107.721 204.674 107.699 204.185 107.664L204.164 107.963ZM207.146 108.022C207.643 108.007 208.151 107.982 208.672 107.944L208.65 107.645C208.134 107.682 207.63 107.708 207.137 107.722L207.146 108.022ZM210.119 107.813C210.611 107.76 211.114 107.696 211.626 107.623L211.584 107.326C211.074 107.399 210.575 107.462 210.087 107.515L210.119 107.813ZM213.074 107.393C213.554 107.309 214.043 107.217 214.541 107.116L214.481 106.822C213.986 106.923 213.5 107.014 213.023 107.097L213.074 107.393ZM216.019 106.798C216.483 106.692 216.955 106.579 217.435 106.458L217.362 106.168C216.884 106.288 216.414 106.4 215.952 106.506L216.019 106.798ZM218.897 106.075C219.144 106.008 219.394 105.938 219.645 105.867L219.563 105.578C219.313 105.649 219.064 105.718 218.818 105.786L218.897 106.075ZM219.645 105.867C219.891 105.797 220.136 105.728 220.379 105.66L220.298 105.371C220.055 105.439 219.81 105.508 219.563 105.578L219.645 105.867ZM221.822 105.259C222.313 105.125 222.798 104.993 223.277 104.865L223.2 104.575C222.72 104.704 222.234 104.835 221.743 104.97L221.822 105.259ZM224.716 104.484C225.211 104.355 225.699 104.228 226.181 104.105L226.107 103.815C225.624 103.938 225.135 104.064 224.64 104.194L224.716 104.484ZM227.634 103.739C228.125 103.617 228.61 103.497 229.089 103.381L229.018 103.09C228.538 103.206 228.053 103.325 227.562 103.448L227.634 103.739ZM230.555 103.03C231.047 102.913 231.533 102.799 232.013 102.689L231.945 102.396C231.465 102.507 230.978 102.621 230.486 102.738L230.555 103.03ZM233.474 102.355C233.97 102.243 234.46 102.134 234.945 102.027L234.88 101.735C234.395 101.841 233.905 101.951 233.408 102.063L233.474 102.355ZM236.411 101.708C236.905 101.601 237.392 101.497 237.875 101.395L237.813 101.102C237.33 101.204 236.842 101.308 236.348 101.415L236.411 101.708ZM239.346 101.086C239.842 100.983 240.333 100.881 240.819 100.781L240.759 100.487C240.272 100.587 239.781 100.689 239.285 100.793L239.346 101.086ZM242.29 100.479C242.785 100.377 243.274 100.277 243.76 100.178L243.7 99.8838C243.215 99.9832 242.724 100.084 242.23 100.185L242.29 100.479ZM245.23 99.8757C245.724 99.7738 246.214 99.6721 246.702 99.5703L246.64 99.2767C246.153 99.3785 245.663 99.4801 245.169 99.5819L245.23 99.8757ZM248.173 99.2597C248.665 99.1548 249.155 99.049 249.642 98.9421L249.578 98.6491C249.091 98.756 248.602 98.8616 248.11 98.9664L248.173 99.2597ZM251.109 98.615C251.598 98.504 252.086 98.3912 252.573 98.2761L252.504 97.9842C252.018 98.0991 251.531 98.2117 251.043 98.3225L251.109 98.615ZM254.035 97.9232C254.52 97.8033 255.006 97.6805 255.493 97.5544L255.418 97.264C254.932 97.3899 254.447 97.5124 253.963 97.632L254.035 97.9232ZM256.947 97.1681C257.428 97.0371 257.91 96.9024 258.394 96.7635L258.312 96.4752C257.829 96.6137 257.348 96.7481 256.868 96.8787L256.947 97.1681ZM259.836 96.3392C260.312 96.1955 260.791 96.0474 261.272 95.8943L261.182 95.6085C260.701 95.7611 260.224 95.9088 259.75 96.0521L259.836 96.3392ZM262.704 95.4283C263.175 95.2708 263.651 95.1084 264.13 94.9406L264.031 94.6575C263.553 94.8248 263.079 94.9868 262.609 95.1438L262.704 95.4283ZM265.545 94.4343C266.009 94.2644 266.477 94.0892 266.95 93.9085L266.843 93.6283C266.371 93.8086 265.904 93.9832 265.441 94.1526L265.545 94.4343ZM268.352 93.362C268.814 93.1784 269.28 92.9893 269.752 92.7945L269.637 92.5173C269.167 92.7116 268.702 92.9002 268.241 93.0833L268.352 93.362ZM271.133 92.2137C271.587 92.0197 272.046 91.8203 272.51 91.6153L272.388 91.3409C271.926 91.5455 271.468 91.7444 271.015 91.938L271.133 92.2137ZM273.888 90.9966C274.337 90.7923 274.79 90.5828 275.249 90.3678L275.122 90.0962C274.664 90.3107 274.211 90.5198 273.764 90.7237L273.888 90.9966ZM276.605 89.724C277.054 89.5079 277.508 89.2868 277.968 89.0602L277.835 88.7912C277.377 89.0173 276.923 89.2381 276.475 89.4537L276.605 89.724ZM279.301 88.3953C279.745 88.1718 280.193 87.9434 280.647 87.7098L280.509 87.4432C280.057 87.6763 279.609 87.9044 279.166 88.1275L279.301 88.3953ZM281.977 87.0182C282.201 86.9005 282.427 86.7816 282.653 86.6614L282.513 86.3964C282.287 86.5164 282.061 86.6351 281.838 86.7527L281.977 87.0182ZM282.653 86.6614C282.878 86.5421 283.104 86.4251 283.329 86.3103L283.192 86.0431C282.966 86.1586 282.739 86.2764 282.513 86.3964L282.653 86.6614ZM284.679 85.6482C285.129 85.4363 285.579 85.2331 286.029 85.0385L285.91 84.7632C285.457 84.9591 285.004 85.1636 284.551 85.3768L284.679 85.6482ZM287.407 84.4688C287.875 84.2841 288.344 84.1085 288.812 83.9417L288.711 83.6592C288.24 83.8271 287.769 84.0039 287.297 84.1898L287.407 84.4688ZM290.216 83.4674C290.693 83.315 291.17 83.1715 291.647 83.0366L291.566 82.748C291.085 82.8838 290.605 83.0282 290.125 83.1817L290.216 83.4674ZM293.093 82.6542C293.575 82.5354 294.057 82.4252 294.539 82.3234L294.477 82.0299C293.992 82.1325 293.507 82.2434 293.021 82.363L293.093 82.6542ZM296.009 82.0382C296.5 81.9513 296.992 81.8729 297.483 81.8027L297.44 81.5058C296.946 81.5765 296.452 81.6554 295.957 81.7428L296.009 82.0382ZM298.958 81.6161C299.455 81.5613 299.952 81.5147 300.448 81.4759L300.425 81.1769C299.925 81.2159 299.425 81.2629 298.926 81.318L298.958 81.6161ZM301.937 81.3826C302.434 81.3591 302.931 81.3432 303.427 81.3347L303.422 81.0348C302.923 81.0434 302.423 81.0594 301.923 81.0831L301.937 81.3826ZM304.921 81.3306C305.419 81.3364 305.916 81.3493 306.414 81.3689L306.426 81.0693C305.925 81.0495 305.425 81.0365 304.925 81.0307L304.921 81.3306ZM307.904 81.448C308.4 81.4809 308.897 81.5204 309.393 81.566L309.42 81.2674C308.922 81.2215 308.423 81.1818 307.924 81.1487L307.904 81.448ZM310.88 81.7215C311.373 81.779 311.867 81.8425 312.36 81.9116L312.401 81.6146C311.906 81.5452 311.411 81.4814 310.915 81.4236L310.88 81.7215ZM313.838 82.1356C314.329 82.2155 314.82 82.3008 315.311 82.3911L315.365 82.0962C314.872 82.0055 314.379 81.9199 313.886 81.8396L313.838 82.1356ZM316.776 82.6756C317.264 82.7753 317.752 82.8798 318.24 82.9887L318.305 82.696C317.816 82.5867 317.326 82.4819 316.836 82.3818L316.776 82.6756ZM319.695 83.327C320.179 83.4438 320.662 83.5646 321.145 83.6894L321.22 83.3991C320.735 83.2739 320.25 83.1526 319.765 83.0355L319.695 83.327ZM322.593 84.0753C323.072 84.2068 323.551 84.3418 324.03 84.4803L324.113 84.1922C323.633 84.0534 323.153 83.9179 322.672 83.7861L322.593 84.0753ZM325.464 84.905C325.941 85.0497 326.418 85.1974 326.895 85.348L326.986 85.062C326.508 84.9111 326.029 84.763 325.551 84.618L325.464 84.905ZM328.317 85.8054C328.791 85.9605 329.264 86.1182 329.737 86.2782L329.834 85.9941C329.36 85.8338 328.885 85.6758 328.411 85.5204L328.317 85.8054ZM331.154 86.7641C331.624 86.9278 332.094 87.0935 332.564 87.261L332.665 86.9785C332.195 86.8108 331.724 86.6448 331.252 86.4809L331.154 86.7641ZM333.973 87.7687C334.442 87.9393 334.91 88.1116 335.378 88.2851L335.483 88.0039C335.014 87.8302 334.545 87.6578 334.076 87.4869L333.973 87.7687ZM336.78 88.809C337.247 88.9848 337.714 89.1616 338.18 89.3393L338.287 89.059C337.821 88.8813 337.353 88.7043 336.886 88.5284L336.78 88.809ZM339.579 89.8749C340.045 90.0541 340.511 90.2339 340.976 90.414L341.085 90.1343C340.619 89.9541 340.153 89.7743 339.687 89.595L339.579 89.8749ZM342.371 90.9551C342.838 91.1364 343.304 91.3177 343.769 91.4988L343.878 91.2194C343.412 91.0382 342.946 90.8569 342.48 90.6756L342.371 90.9551ZM345.165 92.0417C345.63 92.2225 346.095 92.4029 346.56 92.5827L346.668 92.303C346.204 92.1233 345.739 91.9429 345.273 91.7621L345.165 92.0417ZM347.96 93.1229C348.427 93.3021 348.893 93.4804 349.358 93.6575L349.465 93.3772C349 93.2002 348.534 93.022 348.068 92.8429L347.96 93.1229ZM350.759 94.1873C351.229 94.3636 351.698 94.5384 352.166 94.7115L352.27 94.4302C351.802 94.2573 351.334 94.0827 350.865 93.9065L350.759 94.1873ZM353.57 95.2254C354.042 95.3963 354.513 95.5652 354.984 95.7318L355.084 95.4491C354.614 95.2828 354.143 95.1141 353.672 94.9435L353.57 95.2254ZM356.4 96.2265C356.872 96.389 357.343 96.5488 357.814 96.7058L357.908 96.4213C357.439 96.2646 356.969 96.1051 356.498 95.943L356.4 96.2265ZM359.245 97.1749C359.722 97.3281 360.198 97.4782 360.674 97.6248L360.762 97.3382C360.288 97.192 359.813 97.0423 359.337 96.8893L359.245 97.1749ZM362.108 98.0559C362.591 98.1976 363.073 98.3354 363.555 98.4689L363.635 98.1798C363.155 98.0468 362.674 97.9094 362.192 97.7682L362.108 98.0559ZM364.999 98.8564C365.485 98.9827 365.972 99.1045 366.457 99.2212L366.528 98.9296C366.044 98.8133 365.559 98.692 365.074 98.5661L364.999 98.8564ZM367.921 99.5581C368.409 99.6654 368.897 99.7673 369.383 99.8636L369.442 99.5694C368.957 99.4735 368.471 99.372 367.985 99.2652L367.921 99.5581ZM370.866 100.139C371.359 100.225 371.852 100.304 372.344 100.377L372.388 100.081C371.899 100.008 371.408 99.9289 370.917 99.8436L370.866 100.139ZM373.834 100.578C374.333 100.638 374.831 100.692 375.328 100.737L375.356 100.439C374.861 100.393 374.366 100.34 373.87 100.28L373.834 100.578ZM376.821 100.852C377.323 100.883 377.825 100.906 378.326 100.92L378.334 100.62C377.837 100.606 377.338 100.583 376.839 100.553L376.821 100.852ZM379.826 100.937C380.327 100.934 380.828 100.923 381.328 100.902L381.315 100.602C380.819 100.623 380.322 100.635 379.824 100.637L379.826 100.937ZM382.829 100.81C383.328 100.77 383.826 100.72 384.323 100.661L384.287 100.363C383.794 100.422 383.3 100.471 382.805 100.511L382.829 100.81ZM385.81 100.451C386.305 100.371 386.799 100.281 387.292 100.179L387.232 99.8855C386.743 99.9859 386.253 100.076 385.762 100.155L385.81 100.451ZM388.753 99.8466C389.237 99.7253 389.721 99.593 390.204 99.4495L390.119 99.1621C389.64 99.3043 389.16 99.4354 388.68 99.5557L388.753 99.8466ZM391.637 98.9898C392.106 98.828 392.574 98.6552 393.041 98.471L392.931 98.192C392.468 98.3746 392.004 98.5459 391.539 98.7063L391.637 98.9898ZM394.439 97.8842C394.889 97.6838 395.338 97.4725 395.786 97.25L395.652 96.9814C395.208 97.2021 394.763 97.4116 394.317 97.6103L394.439 97.8842ZM397.119 96.5531C397.557 96.3123 397.995 96.0604 398.432 95.7971L398.277 95.5402C397.843 95.8015 397.409 96.0514 396.974 96.2903L397.119 96.5531ZM399.686 95.0072C400.104 94.7332 400.52 94.4486 400.936 94.1529L400.762 93.9085C400.349 94.202 399.936 94.4846 399.522 94.7565L399.686 95.0072ZM402.145 93.2593C402.534 92.9616 402.921 92.6541 403.308 92.3365L403.118 92.1048C402.734 92.4202 402.349 92.7257 401.963 93.0212L402.145 93.2593ZM404.466 91.3533C404.659 91.1843 404.851 91.0128 405.043 90.8386L404.842 90.6164C404.651 90.7895 404.459 90.9599 404.268 91.1279L404.466 91.3533ZM405.043 90.8386C405.226 90.6727 405.409 90.5092 405.592 90.3482L405.393 90.1233C405.21 90.2852 405.026 90.4495 404.842 90.6164L405.043 90.8386ZM406.694 89.4034C407.07 89.0891 407.446 88.7845 407.82 88.4892L407.634 88.2538C407.258 88.5508 406.88 88.857 406.502 89.1731L406.694 89.4034ZM408.977 87.6006C409.372 87.3056 409.765 87.0203 410.156 86.7439L409.983 86.499C409.59 86.7769 409.195 87.0638 408.798 87.3603L408.977 87.6006ZM411.355 85.9177C411.764 85.6432 412.17 85.3778 412.573 85.1205L412.411 84.8677C412.006 85.1262 411.598 85.3929 411.188 85.6687L411.355 85.9177ZM413.807 84.3498C414.228 84.0931 414.645 83.8445 415.057 83.6028L414.906 83.344C414.492 83.5866 414.074 83.8361 413.651 84.0938L413.807 84.3498ZM416.32 82.8755C416.749 82.632 417.173 82.395 417.591 82.1631L417.446 81.9008C417.027 82.133 416.602 82.3705 416.172 82.6147L416.32 82.8755ZM418.869 81.4594C419.302 81.2214 419.729 80.9876 420.147 80.7566L420.003 80.494C419.584 80.7248 419.158 80.9584 418.724 81.1964L418.869 81.4594ZM421.422 80.0454C421.853 79.8015 422.275 79.5585 422.686 79.3145L422.533 79.0566C422.124 79.2993 421.704 79.5412 421.274 79.7844L421.422 80.0454ZM423.934 78.5473C424.353 78.2791 424.76 78.0072 425.152 77.7289L424.979 77.4843C424.591 77.7594 424.188 78.0286 423.772 78.2946L423.934 78.5473ZM426.322 76.8436C426.707 76.5312 427.075 76.2085 427.426 75.8725L427.218 75.6561C426.874 75.9858 426.512 76.303 426.133 76.6107L426.322 76.8436ZM428.437 74.8013C428.755 74.428 429.053 74.0376 429.33 73.6268L429.081 73.4593C428.811 73.8603 428.52 74.2418 428.209 74.6069L428.437 74.8013ZM430.079 72.3578C430.299 71.9307 430.498 71.4829 430.677 71.0119L430.396 70.9057C430.222 71.3663 430.027 71.8037 429.813 72.2207L430.079 72.3578ZM431.126 69.6073C431.248 69.1476 431.353 68.6677 431.439 68.1656L431.144 68.1146C431.059 68.6083 430.956 69.0796 430.836 69.5304L431.126 69.6073ZM431.634 66.7054C431.679 66.2351 431.71 65.747 431.727 65.2398L431.428 65.2298C431.411 65.731 431.38 66.2129 431.335 66.6767L431.634 66.7054ZM431.738 63.777C431.729 63.3065 431.709 62.8208 431.679 62.3193L431.379 62.3377C431.41 62.8352 431.429 63.3165 431.438 63.7824L431.738 63.777ZM431.562 60.8655C431.538 60.6208 431.511 60.3725 431.483 60.1206L431.185 60.1548C431.213 60.4051 431.24 60.6517 431.263 60.8948L431.562 60.8655ZM431.483 60.1206C431.453 59.86 431.417 59.6016 431.375 59.3454L431.079 59.3934C431.12 59.645 431.155 59.8988 431.185 60.1548L431.483 60.1206ZM431.058 57.8301C430.928 57.3266 430.775 56.832 430.602 56.3464L430.319 56.4473C430.49 56.9246 430.64 57.4104 430.767 57.905L431.058 57.8301ZM430.016 54.9105C429.8 54.4419 429.565 53.9821 429.311 53.531L429.049 53.6783C429.3 54.1225 429.531 54.5749 429.743 55.0358L430.016 54.9105ZM428.497 52.2109C428.211 51.7838 427.908 51.3649 427.589 50.9541L427.352 51.138C427.667 51.5435 427.966 51.9567 428.248 52.3778L428.497 52.2109ZM426.602 49.7652C426.263 49.3817 425.91 49.0058 425.544 48.6372L425.331 48.8485C425.693 49.2132 426.043 49.5849 426.378 49.9639L426.602 49.7652ZM424.423 47.567C424.045 47.2235 423.655 46.8869 423.254 46.5569L423.064 46.7883C423.46 47.1154 423.847 47.449 424.222 47.7892L424.423 47.567ZM422.043 45.6013C421.634 45.2924 421.216 44.9898 420.791 44.6934L420.619 44.9395C421.042 45.2338 421.456 45.5341 421.862 45.8406L422.043 45.6013ZM419.507 43.833C419.077 43.5557 418.641 43.2841 418.198 43.0181L418.044 43.2752C418.484 43.5395 418.917 43.8094 419.344 44.085L419.507 43.833ZM416.863 42.242C416.415 41.9907 415.963 41.7448 415.507 41.5042L415.367 41.7695C415.821 42.0089 416.271 42.2535 416.716 42.5035L416.863 42.242ZM414.134 40.8024C413.673 40.5742 413.209 40.3511 412.743 40.133L412.616 40.4047C413.08 40.6218 413.542 40.8439 414 41.0711L414.134 40.8024ZM411.339 39.4951C410.868 39.2871 410.395 39.084 409.921 38.8858L409.806 39.1625C410.278 39.36 410.749 39.5622 411.218 39.7694L411.339 39.4951ZM408.493 38.3045C408.014 38.1145 407.535 37.9295 407.056 37.7492L406.95 38.0298C407.428 38.2095 407.905 38.394 408.383 38.5832L408.493 38.3045ZM405.606 37.2174C405.12 37.0434 404.635 36.8744 404.152 36.7101L404.055 36.9941C404.537 37.1578 405.02 37.3264 405.505 37.4997L405.606 37.2174ZM402.69 36.2253C402.196 36.0652 401.704 35.9101 401.216 35.7598L401.128 36.0465C401.614 36.1963 402.105 36.351 402.598 36.5106L402.69 36.2253ZM399.741 35.3163C399.243 35.1705 398.752 35.0299 398.266 34.8944L398.185 35.1832C398.67 35.3184 399.16 35.4587 399.656 35.6041L399.741 35.3163ZM396.773 34.4878C396.265 34.3529 395.766 34.2238 395.277 34.1003L395.203 34.3911C395.691 34.5143 396.189 34.6431 396.696 34.7776L396.773 34.4878ZM393.78 33.7321C393.266 33.609 392.766 33.4925 392.282 33.3824L392.215 33.6749C392.699 33.7847 393.198 33.9009 393.71 34.0237L393.78 33.7321ZM390.78 33.0506C390.252 32.9374 389.748 32.8326 389.27 32.736L389.211 33.03C389.688 33.1263 390.191 33.2309 390.717 33.3438L390.78 33.0506ZM387.751 32.4388C387.189 32.3327 386.681 32.2408 386.232 32.1624L386.18 32.4578C386.628 32.536 387.135 32.6277 387.695 32.7335L387.751 32.4388ZM384.706 31.9088C384.467 31.8714 384.283 31.8439 384.159 31.8257C384.097 31.8166 384.05 31.8098 384.018 31.8053C384.002 31.8031 383.99 31.8014 383.982 31.8003C383.978 31.7997 383.975 31.7993 383.973 31.799C383.972 31.7988 383.971 31.7987 383.97 31.7987C383.97 31.7986 383.97 31.7986 383.97 31.7986C383.97 31.7986 383.97 31.7986 383.97 31.7986C383.97 31.7986 383.97 31.7986 383.97 31.7986C383.97 31.7986 383.97 31.7986 383.97 31.7985C383.97 31.7985 383.97 31.7985 383.949 31.9471C383.929 32.0957 383.929 32.0957 383.929 32.0957C383.929 32.0957 383.929 32.0957 383.929 32.0957L383.929 32.0957C383.929 32.0957 383.929 32.0957 383.929 32.0957C383.929 32.0957 383.929 32.0957 383.93 32.0958C383.93 32.0958 383.931 32.0959 383.932 32.0961C383.934 32.0963 383.937 32.0967 383.941 32.0973C383.948 32.0984 383.96 32.1 383.976 32.1022C384.007 32.1067 384.054 32.1134 384.116 32.1224C384.239 32.1405 384.422 32.1678 384.66 32.2051L384.706 31.9088Z" fill="#9A54BC"/>
</svg>
