<svg width="48" height="49" viewBox="0 0 48 49" fill="none" xmlns="http://www.w3.org/2000/svg">
<rect x="0.5" y="0.5" width="47" height="48" rx="4" fill="#ECF2FC"/>
<path d="M34.75 24.5C34.75 18.5875 29.9125 13.75 24 13.75C18.0875 13.75 13.25 18.5875 13.25 24.5C13.25 29.875 17.1469 34.3094 22.2531 35.1156V27.5906H19.5656V24.5H22.2531V22.0813C22.2531 19.3937 23.8656 17.9156 26.2844 17.9156C27.4938 17.9156 28.7031 18.1844 28.7031 18.1844V20.8719H27.3594C26.0156 20.8719 25.6125 21.6781 25.6125 22.4844V24.5H28.5687L28.0312 27.5906H25.4781V35.25C30.8531 34.4438 34.75 29.875 34.75 24.5Z" fill="#1877F2"/>
</svg>
